<?xml version="1.0" encoding="UTF-8" standalone="no"?><svg xmlns="http://www.w3.org/2000/svg" xmlns:xlink="http://www.w3.org/1999/xlink" contentStyleType="text/css" height="880px" preserveAspectRatio="none" style="width:4162px;height:880px;background:#FFFFFF;" version="1.1" viewBox="0 0 4162 880" width="4162px" zoomAndPan="magnify"><defs/><g><!--cluster src_b874d07--><g id="cluster_src_b874d07"><path d="M8.5,6 L32.5,6 A3.75,3.75 0 0 1 35,8.5 L42,28.2969 L4152.5,28.2969 A2.5,2.5 0 0 1 4155,30.7969 L4155,870.5 A2.5,2.5 0 0 1 4152.5,873 L8.5,873 A2.5,2.5 0 0 1 6,870.5 L6,8.5 A2.5,2.5 0 0 1 8.5,6 " fill="none" style="stroke:#000000;stroke-width:1.5;"/><line style="stroke:#000000;stroke-width:1.5;" x1="6" x2="42" y1="28.2969" y2="28.2969"/><text fill="#000000" font-family="sans-serif" font-size="14" font-weight="bold" lengthAdjust="spacing" textLength="23" x="10" y="20.9951">src</text></g><!--cluster convert_strategy_42693489--><g id="cluster_convert_strategy_42693489"><path d="M2234.5,212 L2369.5,212 A3.75,3.75 0 0 1 2372,214.5 L2379,234.2969 L4128.5,234.2969 A2.5,2.5 0 0 1 4131,236.7969 L4131,324.5 A2.5,2.5 0 0 1 4128.5,327 L2234.5,327 A2.5,2.5 0 0 1 2232,324.5 L2232,214.5 A2.5,2.5 0 0 1 2234.5,212 " fill="none" style="stroke:#000000;stroke-width:1.5;"/><line style="stroke:#000000;stroke-width:1.5;" x1="2232" x2="2379" y1="234.2969" y2="234.2969"/><text fill="#000000" font-family="sans-serif" font-size="14" font-weight="bold" lengthAdjust="spacing" textLength="134" x="2236" y="226.9951">convert-strategy</text></g><!--cluster env_339e04b5--><g id="cluster_env_339e04b5"><path d="M1443.5,49 L1473.5,49 A3.75,3.75 0 0 1 1476,51.5 L1483,71.2969 L2205.5,71.2969 A2.5,2.5 0 0 1 2208,73.7969 L2208,774.5 A2.5,2.5 0 0 1 2205.5,777 L1443.5,777 A2.5,2.5 0 0 1 1441,774.5 L1441,51.5 A2.5,2.5 0 0 1 1443.5,49 " fill="none" style="stroke:#000000;stroke-width:1.5;"/><line style="stroke:#000000;stroke-width:1.5;" x1="1441" x2="1483" y1="71.2969" y2="71.2969"/><text fill="#000000" font-family="sans-serif" font-size="14" font-weight="bold" lengthAdjust="spacing" textLength="29" x="1445" y="63.9951">env</text></g><!--cluster location_strategy_afd28503--><g id="cluster_location_strategy_afd28503"><path d="M648.5,163 L786.5,163 A3.75,3.75 0 0 1 789,165.5 L796,185.2969 L1414.5,185.2969 A2.5,2.5 0 0 1 1417,187.7969 L1417,693 A2.5,2.5 0 0 1 1414.5,695.5 L648.5,695.5 A2.5,2.5 0 0 1 646,693 L646,165.5 A2.5,2.5 0 0 1 648.5,163 " fill="none" style="stroke:#000000;stroke-width:1.5;"/><line style="stroke:#000000;stroke-width:1.5;" x1="646" x2="796" y1="185.2969" y2="185.2969"/><text fill="#000000" font-family="sans-serif" font-size="14" font-weight="bold" lengthAdjust="spacing" textLength="137" x="650" y="177.9951">location-strategy</text></g><!--cluster naming_strategy_797f00dc--><g id="cluster_naming_strategy_797f00dc"><path d="M32.5,195.5 L165.5,195.5 A3.75,3.75 0 0 1 168,198 L175,217.7969 L619.5,217.7969 A2.5,2.5 0 0 1 622,220.2969 L622,709.5 A2.5,2.5 0 0 1 619.5,712 L32.5,712 A2.5,2.5 0 0 1 30,709.5 L30,198 A2.5,2.5 0 0 1 32.5,195.5 " fill="none" style="stroke:#000000;stroke-width:1.5;"/><line style="stroke:#000000;stroke-width:1.5;" x1="30" x2="175" y1="217.7969" y2="217.7969"/><text fill="#000000" font-family="sans-serif" font-size="14" font-weight="bold" lengthAdjust="spacing" textLength="132" x="34" y="210.4951">naming-strategy</text></g><g id="elem_msh_env_b1c29247"><rect fill="#F1F1F1" height="36.2969" style="stroke:#181818;stroke-width:0.5;" width="68" x="2005" y="821"/><text fill="#000000" font-family="sans-serif" font-size="14" lengthAdjust="spacing" textLength="54" x="2012" y="835.9951">MshEnv</text><line style="stroke:#181818;stroke-width:0.5;" x1="2006" x2="2072" y1="841.2969" y2="841.2969"/></g><!--class convert_strategy_base64_to_string_1a7fae76--><g id="elem_convert_strategy_base64_to_string_1a7fae76"><rect codeLine="5" fill="#F1F1F1" height="64.2969" id="convert_strategy_base64_to_string_1a7fae76" rx="2.5" ry="2.5" style="stroke:#181818;stroke-width:0.5;" width="284" x="2551" y="247"/><ellipse cx="2576.35" cy="263" fill="#ADD1B2" rx="11" ry="11" style="stroke:#181818;stroke-width:1.0;"/><path d="M2579.3188,268.6406 Q2578.7406,268.9375 2578.1,269.0781 Q2577.4594,269.2344 2576.7563,269.2344 Q2574.2563,269.2344 2572.9281,267.5938 Q2571.6156,265.9375 2571.6156,262.8125 Q2571.6156,259.6875 2572.9281,258.0313 Q2574.2563,256.375 2576.7563,256.375 Q2577.4594,256.375 2578.1,256.5313 Q2578.7563,256.6875 2579.3188,256.9844 L2579.3188,259.7031 Q2578.6938,259.125 2578.1,258.8594 Q2577.5063,258.5781 2576.8813,258.5781 Q2575.5375,258.5781 2574.85,259.6563 Q2574.1625,260.7188 2574.1625,262.8125 Q2574.1625,264.9063 2574.85,265.9844 Q2575.5375,267.0469 2576.8813,267.0469 Q2577.5063,267.0469 2578.1,266.7813 Q2578.6938,266.5 2579.3188,265.9219 L2579.3188,268.6406 Z " fill="#000000"/><text fill="#000000" font-family="sans-serif" font-size="14" lengthAdjust="spacing" textLength="229" x="2592.65" y="267.8467">ConvertStrategyBase64ToString</text><line style="stroke:#181818;stroke-width:0.5;" x1="2552" x2="2834" y1="279" y2="279"/><line style="stroke:#181818;stroke-width:0.5;" x1="2552" x2="2834" y1="287" y2="287"/><text fill="#000000" font-family="sans-serif" font-size="14" lengthAdjust="spacing" textLength="272" x="2557" y="303.9951">convert(str?: string): string | undefined</text></g><!--class convert_strategy_5952dd71--><g id="elem_convert_strategy_5952dd71"><rect codeLine="8" fill="#F1F1F1" height="64.2969" id="convert_strategy_5952dd71" rx="2.5" ry="2.5" style="stroke:#181818;stroke-width:0.5;" width="267" x="2248.5" y="247"/><ellipse cx="2319.75" cy="263" fill="#B4A7E5" rx="11" ry="11" style="stroke:#181818;stroke-width:1.0;"/><path d="M2315.6719,258.7656 L2315.6719,256.6094 L2323.0625,256.6094 L2323.0625,258.7656 L2320.5938,258.7656 L2320.5938,266.8438 L2323.0625,266.8438 L2323.0625,269 L2315.6719,269 L2315.6719,266.8438 L2318.1406,266.8438 L2318.1406,258.7656 L2315.6719,258.7656 Z " fill="#000000"/><text fill="#000000" font-family="sans-serif" font-size="14" font-style="italic" lengthAdjust="spacing" textLength="116" x="2340.25" y="267.8467">ConvertStrategy</text><line style="stroke:#181818;stroke-width:0.5;" x1="2249.5" x2="2514.5" y1="279" y2="279"/><line style="stroke:#181818;stroke-width:0.5;" x1="2249.5" x2="2514.5" y1="287" y2="287"/><ellipse cx="2259.5" cy="300.6484" fill="#84BE84" rx="3" ry="3" style="stroke:#038048;stroke-width:1.0;"/><text fill="#000000" font-family="sans-serif" font-size="14" lengthAdjust="spacing" textLength="241" x="2268.5" y="303.9951">convert(str?: string): T | undefined</text></g><!--class convert_strategy_to_boolean_b5f6361d--><g id="elem_convert_strategy_to_boolean_b5f6361d"><rect codeLine="11" fill="#F1F1F1" height="64.2969" id="convert_strategy_to_boolean_b5f6361d" rx="2.5" ry="2.5" style="stroke:#181818;stroke-width:0.5;" width="302" x="2870" y="247"/><ellipse cx="2920.25" cy="263" fill="#ADD1B2" rx="11" ry="11" style="stroke:#181818;stroke-width:1.0;"/><path d="M2923.2188,268.6406 Q2922.6406,268.9375 2922,269.0781 Q2921.3594,269.2344 2920.6563,269.2344 Q2918.1563,269.2344 2916.8281,267.5938 Q2915.5156,265.9375 2915.5156,262.8125 Q2915.5156,259.6875 2916.8281,258.0313 Q2918.1563,256.375 2920.6563,256.375 Q2921.3594,256.375 2922,256.5313 Q2922.6563,256.6875 2923.2188,256.9844 L2923.2188,259.7031 Q2922.5938,259.125 2922,258.8594 Q2921.4063,258.5781 2920.7813,258.5781 Q2919.4375,258.5781 2918.75,259.6563 Q2918.0625,260.7188 2918.0625,262.8125 Q2918.0625,264.9063 2918.75,265.9844 Q2919.4375,267.0469 2920.7813,267.0469 Q2921.4063,267.0469 2922,266.7813 Q2922.5938,266.5 2923.2188,265.9219 L2923.2188,268.6406 Z " fill="#000000"/><text fill="#000000" font-family="sans-serif" font-size="14" lengthAdjust="spacing" textLength="193" x="2940.75" y="267.8467">ConvertStrategyToBoolean</text><line style="stroke:#181818;stroke-width:0.5;" x1="2871" x2="3171" y1="279" y2="279"/><line style="stroke:#181818;stroke-width:0.5;" x1="2871" x2="3171" y1="287" y2="287"/><text fill="#000000" font-family="sans-serif" font-size="14" lengthAdjust="spacing" textLength="290" x="2876" y="303.9951">convert(str?: string): boolean | undefined</text></g><!--class convert_strategy_to_json_3a59481--><g id="elem_convert_strategy_to_json_3a59481"><rect codeLine="14" fill="#F1F1F1" height="64.2969" id="convert_strategy_to_json_3a59481" rx="2.5" ry="2.5" style="stroke:#181818;stroke-width:0.5;" width="253" x="3207.5" y="247"/><ellipse cx="3248.6" cy="263" fill="#ADD1B2" rx="11" ry="11" style="stroke:#181818;stroke-width:1.0;"/><path d="M3251.5688,268.6406 Q3250.9906,268.9375 3250.35,269.0781 Q3249.7094,269.2344 3249.0063,269.2344 Q3246.5063,269.2344 3245.1781,267.5938 Q3243.8656,265.9375 3243.8656,262.8125 Q3243.8656,259.6875 3245.1781,258.0313 Q3246.5063,256.375 3249.0063,256.375 Q3249.7094,256.375 3250.35,256.5313 Q3251.0063,256.6875 3251.5688,256.9844 L3251.5688,259.7031 Q3250.9438,259.125 3250.35,258.8594 Q3249.7563,258.5781 3249.1313,258.5781 Q3247.7875,258.5781 3247.1,259.6563 Q3246.4125,260.7188 3246.4125,262.8125 Q3246.4125,264.9063 3247.1,265.9844 Q3247.7875,267.0469 3249.1313,267.0469 Q3249.7563,267.0469 3250.35,266.7813 Q3250.9438,266.5 3251.5688,265.9219 L3251.5688,268.6406 Z " fill="#000000"/><text fill="#000000" font-family="sans-serif" font-size="14" lengthAdjust="spacing" textLength="163" x="3268.4" y="267.8467">ConvertStrategyToJson</text><line style="stroke:#181818;stroke-width:0.5;" x1="3208.5" x2="3459.5" y1="279" y2="279"/><line style="stroke:#181818;stroke-width:0.5;" x1="3208.5" x2="3459.5" y1="287" y2="287"/><text fill="#000000" font-family="sans-serif" font-size="14" lengthAdjust="spacing" textLength="241" x="3213.5" y="303.9951">convert(str?: string): T | undefined</text></g><!--class convert_strategy_to_number_5542359a--><g id="elem_convert_strategy_to_number_5542359a"><rect codeLine="17" fill="#F1F1F1" height="64.2969" id="convert_strategy_to_number_5542359a" rx="2.5" ry="2.5" style="stroke:#181818;stroke-width:0.5;" width="300" x="3496" y="247"/><ellipse cx="3546.25" cy="263" fill="#ADD1B2" rx="11" ry="11" style="stroke:#181818;stroke-width:1.0;"/><path d="M3549.2188,268.6406 Q3548.6406,268.9375 3548,269.0781 Q3547.3594,269.2344 3546.6563,269.2344 Q3544.1563,269.2344 3542.8281,267.5938 Q3541.5156,265.9375 3541.5156,262.8125 Q3541.5156,259.6875 3542.8281,258.0313 Q3544.1563,256.375 3546.6563,256.375 Q3547.3594,256.375 3548,256.5313 Q3548.6563,256.6875 3549.2188,256.9844 L3549.2188,259.7031 Q3548.5938,259.125 3548,258.8594 Q3547.4063,258.5781 3546.7813,258.5781 Q3545.4375,258.5781 3544.75,259.6563 Q3544.0625,260.7188 3544.0625,262.8125 Q3544.0625,264.9063 3544.75,265.9844 Q3545.4375,267.0469 3546.7813,267.0469 Q3547.4063,267.0469 3548,266.7813 Q3548.5938,266.5 3549.2188,265.9219 L3549.2188,268.6406 Z " fill="#000000"/><text fill="#000000" font-family="sans-serif" font-size="14" lengthAdjust="spacing" textLength="191" x="3566.75" y="267.8467">ConvertStrategyToNumber</text><line style="stroke:#181818;stroke-width:0.5;" x1="3497" x2="3795" y1="279" y2="279"/><line style="stroke:#181818;stroke-width:0.5;" x1="3497" x2="3795" y1="287" y2="287"/><text fill="#000000" font-family="sans-serif" font-size="14" lengthAdjust="spacing" textLength="288" x="3502" y="303.9951">convert(str?: string): number | undefined</text></g><!--class convert_strategy_to_string_8b9651ec--><g id="elem_convert_strategy_to_string_8b9651ec"><rect codeLine="20" fill="#F1F1F1" height="64.2969" id="convert_strategy_to_string_8b9651ec" rx="2.5" ry="2.5" style="stroke:#181818;stroke-width:0.5;" width="284" x="3831" y="247"/><ellipse cx="3880.75" cy="263" fill="#ADD1B2" rx="11" ry="11" style="stroke:#181818;stroke-width:1.0;"/><path d="M3883.7188,268.6406 Q3883.1406,268.9375 3882.5,269.0781 Q3881.8594,269.2344 3881.1563,269.2344 Q3878.6563,269.2344 3877.3281,267.5938 Q3876.0156,265.9375 3876.0156,262.8125 Q3876.0156,259.6875 3877.3281,258.0313 Q3878.6563,256.375 3881.1563,256.375 Q3881.8594,256.375 3882.5,256.5313 Q3883.1563,256.6875 3883.7188,256.9844 L3883.7188,259.7031 Q3883.0938,259.125 3882.5,258.8594 Q3881.9063,258.5781 3881.2813,258.5781 Q3879.9375,258.5781 3879.25,259.6563 Q3878.5625,260.7188 3878.5625,262.8125 Q3878.5625,264.9063 3879.25,265.9844 Q3879.9375,267.0469 3881.2813,267.0469 Q3881.9063,267.0469 3882.5,266.7813 Q3883.0938,266.5 3883.7188,265.9219 L3883.7188,268.6406 Z " fill="#000000"/><text fill="#000000" font-family="sans-serif" font-size="14" lengthAdjust="spacing" textLength="176" x="3901.25" y="267.8467">ConvertStrategyToString</text><line style="stroke:#181818;stroke-width:0.5;" x1="3832" x2="4114" y1="279" y2="279"/><line style="stroke:#181818;stroke-width:0.5;" x1="3832" x2="4114" y1="287" y2="287"/><text fill="#000000" font-family="sans-serif" font-size="14" lengthAdjust="spacing" textLength="272" x="3837" y="303.9951">convert(str?: string): string | undefined</text></g><!--class env_factory_3969ec87--><g id="elem_env_factory_3969ec87"><rect codeLine="25" fill="#F1F1F1" height="227.2656" id="env_factory_3969ec87" rx="2.5" ry="2.5" style="stroke:#181818;stroke-width:0.5;" width="306" x="1886" y="534"/><ellipse cx="1995.25" cy="550" fill="#ADD1B2" rx="11" ry="11" style="stroke:#181818;stroke-width:1.0;"/><path d="M1998.2188,555.6406 Q1997.6406,555.9375 1997,556.0781 Q1996.3594,556.2344 1995.6563,556.2344 Q1993.1563,556.2344 1991.8281,554.5938 Q1990.5156,552.9375 1990.5156,549.8125 Q1990.5156,546.6875 1991.8281,545.0313 Q1993.1563,543.375 1995.6563,543.375 Q1996.3594,543.375 1997,543.5313 Q1997.6563,543.6875 1998.2188,543.9844 L1998.2188,546.7031 Q1997.5938,546.125 1997,545.8594 Q1996.4063,545.5781 1995.7813,545.5781 Q1994.4375,545.5781 1993.75,546.6563 Q1993.0625,547.7188 1993.0625,549.8125 Q1993.0625,551.9063 1993.75,552.9844 Q1994.4375,554.0469 1995.7813,554.0469 Q1996.4063,554.0469 1997,553.7813 Q1997.5938,553.5 1998.2188,552.9219 L1998.2188,555.6406 Z " fill="#000000"/><text fill="#000000" font-family="sans-serif" font-size="14" lengthAdjust="spacing" textLength="79" x="2015.75" y="554.8467">EnvFactory</text><line style="stroke:#181818;stroke-width:0.5;" x1="1887" x2="2191" y1="566" y2="566"/><polygon fill="none" points="1897,574.6484,1901,578.6484,1897,582.6484,1893,578.6484" style="stroke:#B38D22;stroke-width:1.0;"/><text fill="#000000" font-family="sans-serif" font-size="14" lengthAdjust="spacing" textLength="68" x="1906" y="582.9951">_env: Env</text><text fill="#000000" font-family="sans-serif" font-size="14" lengthAdjust="spacing" textLength="186" x="1906" y="599.292">base64: EnvType&lt;string&gt;</text><text fill="#000000" font-family="sans-serif" font-size="14" lengthAdjust="spacing" textLength="210" x="1906" y="615.5889">boolean: EnvType&lt;boolean&gt;</text><text fill="#000000" font-family="sans-serif" font-size="14" lengthAdjust="spacing" textLength="132" x="1906" y="631.8857">json: EnvType&lt;T&gt;</text><text fill="#000000" font-family="sans-serif" font-size="14" lengthAdjust="spacing" textLength="206" x="1906" y="648.1826">number: EnvType&lt;number&gt;</text><text fill="#000000" font-family="sans-serif" font-size="14" lengthAdjust="spacing" textLength="174" x="1906" y="664.4795">string: EnvType&lt;string&gt;</text><line style="stroke:#181818;stroke-width:0.5;" x1="1887" x2="2191" y1="671.7813" y2="671.7813"/><text fill="#000000" font-family="sans-serif" font-size="14" lengthAdjust="spacing" textLength="158" x="1892" y="688.7764">constructor(params: {</text><text fill="#000000" font-family="sans-serif" font-size="14" lengthAdjust="spacing" textLength="112" x="1912" y="705.0732">names: string[];</text><text fill="#000000" font-family="sans-serif" font-size="14" lengthAdjust="spacing" textLength="274" x="1912" y="721.3701">locationStrategies: LocationStrategy[];</text><text fill="#000000" font-family="sans-serif" font-size="14" lengthAdjust="spacing" textLength="260" x="1912" y="737.667">namingStrategies: NamingStrategy[]</text><text fill="#000000" font-family="sans-serif" font-size="14" lengthAdjust="spacing" textLength="14" x="1892" y="753.9639">})</text></g><!--class env_1c6f07cd--><g id="elem_env_1c6f07cd"><rect codeLine="34" fill="#F1F1F1" height="210.9688" id="env_1c6f07cd" rx="2.5" ry="2.5" style="stroke:#181818;stroke-width:0.5;" width="306" x="1457" y="173.5"/><ellipse cx="1592.75" cy="189.5" fill="#ADD1B2" rx="11" ry="11" style="stroke:#181818;stroke-width:1.0;"/><path d="M1595.7188,195.1406 Q1595.1406,195.4375 1594.5,195.5781 Q1593.8594,195.7344 1593.1563,195.7344 Q1590.6563,195.7344 1589.3281,194.0938 Q1588.0156,192.4375 1588.0156,189.3125 Q1588.0156,186.1875 1589.3281,184.5313 Q1590.6563,182.875 1593.1563,182.875 Q1593.8594,182.875 1594.5,183.0313 Q1595.1563,183.1875 1595.7188,183.4844 L1595.7188,186.2031 Q1595.0938,185.625 1594.5,185.3594 Q1593.9063,185.0781 1593.2813,185.0781 Q1591.9375,185.0781 1591.25,186.1563 Q1590.5625,187.2188 1590.5625,189.3125 Q1590.5625,191.4063 1591.25,192.4844 Q1591.9375,193.5469 1593.2813,193.5469 Q1593.9063,193.5469 1594.5,193.2813 Q1595.0938,193 1595.7188,192.4219 L1595.7188,195.1406 Z " fill="#000000"/><text fill="#000000" font-family="sans-serif" font-size="14" lengthAdjust="spacing" textLength="26" x="1613.25" y="194.3467">Env</text><line style="stroke:#181818;stroke-width:0.5;" x1="1458" x2="1762" y1="205.5" y2="205.5"/><polygon fill="none" points="1468,214.1484,1472,218.1484,1468,222.1484,1464,218.1484" style="stroke:#B38D22;stroke-width:1.0;"/><text fill="#000000" font-family="sans-serif" font-size="14" lengthAdjust="spacing" textLength="141" x="1477" y="222.4951">_envNames: string[]</text><polygon fill="none" points="1468,230.4453,1472,234.4453,1468,238.4453,1464,234.4453" style="stroke:#B38D22;stroke-width:1.0;"/><text fill="#000000" font-family="sans-serif" font-size="14" lengthAdjust="spacing" textLength="276" x="1477" y="238.792">_locationStrategies: LocationStrategy[]</text><polygon fill="none" points="1468,246.7422,1472,250.7422,1468,254.7422,1464,250.7422" style="stroke:#B38D22;stroke-width:1.0;"/><text fill="#000000" font-family="sans-serif" font-size="14" lengthAdjust="spacing" textLength="267" x="1477" y="255.0889">_namingStrategies: NamingStrategy[]</text><text fill="#000000" font-family="sans-serif" font-size="14" lengthAdjust="spacing" textLength="201" x="1477" y="271.3857">envValue: string | undefined</text><text fill="#000000" font-family="sans-serif" font-size="14" lengthAdjust="spacing" textLength="107" x="1477" y="287.6826">names: string[]</text><line style="stroke:#181818;stroke-width:0.5;" x1="1458" x2="1762" y1="294.9844" y2="294.9844"/><text fill="#000000" font-family="sans-serif" font-size="14" lengthAdjust="spacing" textLength="158" x="1463" y="311.9795">constructor(params: {</text><text fill="#000000" font-family="sans-serif" font-size="14" lengthAdjust="spacing" textLength="112" x="1483" y="328.2764">names: string[];</text><text fill="#000000" font-family="sans-serif" font-size="14" lengthAdjust="spacing" textLength="274" x="1483" y="344.5732">locationStrategies: LocationStrategy[];</text><text fill="#000000" font-family="sans-serif" font-size="14" lengthAdjust="spacing" textLength="260" x="1483" y="360.8701">namingStrategies: NamingStrategy[]</text><text fill="#000000" font-family="sans-serif" font-size="14" lengthAdjust="spacing" textLength="14" x="1463" y="377.167">})</text></g><!--class env_type_b658b1cb--><g id="elem_env_type_b658b1cb"><rect codeLine="42" fill="#F1F1F1" height="390.2344" id="env_type_b658b1cb" rx="2.5" ry="2.5" style="stroke:#181818;stroke-width:0.5;" width="376" x="1798" y="84"/><ellipse cx="1951.25" cy="100" fill="#ADD1B2" rx="11" ry="11" style="stroke:#181818;stroke-width:1.0;"/><path d="M1954.2188,105.6406 Q1953.6406,105.9375 1953,106.0781 Q1952.3594,106.2344 1951.6563,106.2344 Q1949.1563,106.2344 1947.8281,104.5938 Q1946.5156,102.9375 1946.5156,99.8125 Q1946.5156,96.6875 1947.8281,95.0313 Q1949.1563,93.375 1951.6563,93.375 Q1952.3594,93.375 1953,93.5313 Q1953.6563,93.6875 1954.2188,93.9844 L1954.2188,96.7031 Q1953.5938,96.125 1953,95.8594 Q1952.4063,95.5781 1951.7813,95.5781 Q1950.4375,95.5781 1949.75,96.6563 Q1949.0625,97.7188 1949.0625,99.8125 Q1949.0625,101.9063 1949.75,102.9844 Q1950.4375,104.0469 1951.7813,104.0469 Q1952.4063,104.0469 1953,103.7813 Q1953.5938,103.5 1954.2188,102.9219 L1954.2188,105.6406 Z " fill="#000000"/><text fill="#000000" font-family="sans-serif" font-size="14" lengthAdjust="spacing" textLength="61" x="1971.75" y="104.8467">EnvType</text><line style="stroke:#181818;stroke-width:0.5;" x1="1799" x2="2173" y1="116" y2="116"/><polygon fill="none" points="1809,124.6484,1813,128.6484,1809,132.6484,1805,128.6484" style="stroke:#B38D22;stroke-width:1.0;"/><text fill="#000000" font-family="sans-serif" font-size="14" lengthAdjust="spacing" textLength="138" x="1818" y="132.9951">_allowedValues: T[]</text><polygon fill="none" points="1809,140.9453,1813,144.9453,1809,148.9453,1805,144.9453" style="stroke:#B38D22;stroke-width:1.0;"/><text fill="#000000" font-family="sans-serif" font-size="14" lengthAdjust="spacing" textLength="219" x="1818" y="149.292">_allowedValuesToString: string</text><polygon fill="none" points="1809,157.2422,1813,161.2422,1809,165.2422,1805,161.2422" style="stroke:#B38D22;stroke-width:1.0;"/><text fill="#000000" font-family="sans-serif" font-size="14" lengthAdjust="spacing" textLength="279" x="1818" y="165.5889">_convertStrategy: ConvertStrategy&lt;T&gt;</text><polygon fill="none" points="1809,173.5391,1813,177.5391,1809,181.5391,1805,177.5391" style="stroke:#B38D22;stroke-width:1.0;"/><text fill="#000000" font-family="sans-serif" font-size="14" lengthAdjust="spacing" textLength="201" x="1818" y="181.8857">_defaultValue: T | undefined</text><polygon fill="none" points="1809,189.8359,1813,193.8359,1809,197.8359,1805,193.8359" style="stroke:#B38D22;stroke-width:1.0;"/><text fill="#000000" font-family="sans-serif" font-size="14" lengthAdjust="spacing" textLength="68" x="1818" y="198.1826">_env: Env</text><polygon fill="none" points="1809,206.1328,1813,210.1328,1809,214.1328,1805,210.1328" style="stroke:#B38D22;stroke-width:1.0;"/><text fill="#000000" font-family="sans-serif" font-size="14" lengthAdjust="spacing" textLength="124" x="1818" y="214.4795">_envName: string</text><text fill="#000000" font-family="sans-serif" font-size="14" lengthAdjust="spacing" textLength="161" x="1818" y="230.7764">optional: T | undefined</text><text fill="#000000" font-family="sans-serif" font-size="14" lengthAdjust="spacing" textLength="79" x="1818" y="247.0732">required: T</text><line style="stroke:#181818;stroke-width:0.5;" x1="1799" x2="2173" y1="254.375" y2="254.375"/><polygon fill="#FFFF44" points="1809,263.0234,1813,267.0234,1809,271.0234,1805,267.0234" style="stroke:#B38D22;stroke-width:1.0;"/><text fill="#000000" font-family="sans-serif" font-size="14" lengthAdjust="spacing" textLength="350" x="1818" y="271.3701">_allowedValuesDoNotContain(value?: T): boolean</text><polygon fill="#FFFF44" points="1809,279.3203,1813,283.3203,1809,287.3203,1805,283.3203" style="stroke:#B38D22;stroke-width:1.0;"/><text fill="#000000" font-family="sans-serif" font-size="14" lengthAdjust="spacing" textLength="223" x="1818" y="287.667">_createError(msg: string): Error</text><polygon fill="#FFFF44" points="1809,320.0625,1813,324.0625,1809,328.0625,1805,324.0625" style="stroke:#B38D22;stroke-width:1.0;"/><text fill="#000000" font-family="sans-serif" font-size="14" lengthAdjust="spacing" textLength="188" x="1818" y="303.9639">_loggerDebug(msg: string,</text><text fill="#000000" font-family="sans-serif" font-size="14" lengthAdjust="spacing" textLength="61" x="1838" y="320.2607">...args: {</text><text fill="#000000" font-family="sans-serif" font-size="14" lengthAdjust="spacing" textLength="102" x="1838" y="336.5576">[k: string]: any</text><text fill="#000000" font-family="sans-serif" font-size="14" lengthAdjust="spacing" textLength="63" x="1818" y="352.8545">}[]): void</text><polygon fill="#FFFF44" points="1809,360.8047,1813,364.8047,1809,368.8047,1805,364.8047" style="stroke:#B38D22;stroke-width:1.0;"/><text fill="#000000" font-family="sans-serif" font-size="14" lengthAdjust="spacing" textLength="281" x="1818" y="369.1514">_validateAllowedValues(value?: T): void</text><text fill="#000000" font-family="sans-serif" font-size="14" lengthAdjust="spacing" textLength="239" x="1818" y="385.4482">allowed(...args: T[]): EnvType&lt;T&gt;</text><text fill="#000000" font-family="sans-serif" font-size="14" lengthAdjust="spacing" textLength="158" x="1818" y="401.7451">constructor(params: {</text><text fill="#000000" font-family="sans-serif" font-size="14" lengthAdjust="spacing" textLength="277" x="1838" y="418.042">convertStrategy: ConvertStrategy&lt;T&gt;;</text><text fill="#000000" font-family="sans-serif" font-size="14" lengthAdjust="spacing" textLength="61" x="1838" y="434.3389">env: Env</text><text fill="#000000" font-family="sans-serif" font-size="14" lengthAdjust="spacing" textLength="14" x="1818" y="450.6357">})</text><text fill="#000000" font-family="sans-serif" font-size="14" lengthAdjust="spacing" textLength="272" x="1818" y="466.9326">default(defaultValue: T): EnvType&lt;T&gt;</text></g><!--class location_strategy_cli_args_minimist_d9ad8ea4--><g id="elem_location_strategy_cli_args_minimist_d9ad8ea4"><rect codeLine="61" fill="#F1F1F1" height="162.0781" id="location_strategy_cli_args_minimist_d9ad8ea4" rx="2.5" ry="2.5" style="stroke:#181818;stroke-width:0.5;" width="345" x="661.5" y="198"/><ellipse cx="714.75" cy="214" fill="#ADD1B2" rx="11" ry="11" style="stroke:#181818;stroke-width:1.0;"/><path d="M717.7188,219.6406 Q717.1406,219.9375 716.5,220.0781 Q715.8594,220.2344 715.1563,220.2344 Q712.6563,220.2344 711.3281,218.5938 Q710.0156,216.9375 710.0156,213.8125 Q710.0156,210.6875 711.3281,209.0313 Q712.6563,207.375 715.1563,207.375 Q715.8594,207.375 716.5,207.5313 Q717.1563,207.6875 717.7188,207.9844 L717.7188,210.7031 Q717.0938,210.125 716.5,209.8594 Q715.9063,209.5781 715.2813,209.5781 Q713.9375,209.5781 713.25,210.6563 Q712.5625,211.7188 712.5625,213.8125 Q712.5625,215.9063 713.25,216.9844 Q713.9375,218.0469 715.2813,218.0469 Q715.9063,218.0469 716.5,217.7813 Q717.0938,217.5 717.7188,216.9219 L717.7188,219.6406 Z " fill="#000000"/><text fill="#000000" font-family="sans-serif" font-size="14" lengthAdjust="spacing" textLength="230" x="735.25" y="218.8467">LocationStrategyCliArgsMinimist</text><line style="stroke:#181818;stroke-width:0.5;" x1="662.5" x2="1005.5" y1="230" y2="230"/><polygon fill="none" points="672.5,238.6484,676.5,242.6484,672.5,246.6484,668.5,242.6484" style="stroke:#B38D22;stroke-width:1.0;"/><text fill="#000000" font-family="sans-serif" font-size="14" lengthAdjust="spacing" textLength="56" x="681.5" y="246.9951">_args: T</text><polygon fill="none" points="672.5,254.9453,676.5,258.9453,672.5,262.9453,668.5,258.9453" style="stroke:#B38D22;stroke-width:1.0;"/><text fill="#000000" font-family="sans-serif" font-size="14" lengthAdjust="spacing" textLength="176" x="681.5" y="263.292">_miniOpts: minimist.Opts</text><line style="stroke:#181818;stroke-width:0.5;" x1="662.5" x2="1005.5" y1="270.5938" y2="270.5938"/><text fill="#000000" font-family="sans-serif" font-size="14" lengthAdjust="spacing" textLength="165" x="667.5" y="287.5889">constructor(params?: {</text><text fill="#000000" font-family="sans-serif" font-size="14" lengthAdjust="spacing" textLength="127" x="687.5" y="303.8857">options?: Options;</text><text fill="#000000" font-family="sans-serif" font-size="14" lengthAdjust="spacing" textLength="97" x="687.5" y="320.1826">args?: string[]</text><text fill="#000000" font-family="sans-serif" font-size="14" lengthAdjust="spacing" textLength="14" x="667.5" y="336.4795">})</text><text fill="#000000" font-family="sans-serif" font-size="14" lengthAdjust="spacing" textLength="333" x="667.5" y="352.7764">valueByName(name: string): string | undefined</text></g><!--class location_strategy_docker_secrets_aadf16f9--><g id="elem_location_strategy_docker_secrets_aadf16f9"><rect codeLine="67" fill="#F1F1F1" height="64.2969" id="location_strategy_docker_secrets_aadf16f9" rx="2.5" ry="2.5" style="stroke:#181818;stroke-width:0.5;" width="345" x="1041.5" y="247"/><ellipse cx="1097.25" cy="263" fill="#ADD1B2" rx="11" ry="11" style="stroke:#181818;stroke-width:1.0;"/><path d="M1100.2188,268.6406 Q1099.6406,268.9375 1099,269.0781 Q1098.3594,269.2344 1097.6563,269.2344 Q1095.1563,269.2344 1093.8281,267.5938 Q1092.5156,265.9375 1092.5156,262.8125 Q1092.5156,259.6875 1093.8281,258.0313 Q1095.1563,256.375 1097.6563,256.375 Q1098.3594,256.375 1099,256.5313 Q1099.6563,256.6875 1100.2188,256.9844 L1100.2188,259.7031 Q1099.5938,259.125 1099,258.8594 Q1098.4063,258.5781 1097.7813,258.5781 Q1096.4375,258.5781 1095.75,259.6563 Q1095.0625,260.7188 1095.0625,262.8125 Q1095.0625,264.9063 1095.75,265.9844 Q1096.4375,267.0469 1097.7813,267.0469 Q1098.4063,267.0469 1099,266.7813 Q1099.5938,266.5 1100.2188,265.9219 L1100.2188,268.6406 Z " fill="#000000"/><text fill="#000000" font-family="sans-serif" font-size="14" lengthAdjust="spacing" textLength="225" x="1117.75" y="267.8467">LocationStrategyDockerSecrets</text><line style="stroke:#181818;stroke-width:0.5;" x1="1042.5" x2="1385.5" y1="279" y2="279"/><line style="stroke:#181818;stroke-width:0.5;" x1="1042.5" x2="1385.5" y1="287" y2="287"/><text fill="#000000" font-family="sans-serif" font-size="14" lengthAdjust="spacing" textLength="333" x="1047.5" y="303.9951">valueByName(name: string): string | undefined</text></g><!--class location_strategy_environment_114d0f30--><g id="elem_location_strategy_environment_114d0f30"><rect codeLine="70" fill="#F1F1F1" height="64.2969" id="location_strategy_environment_114d0f30" rx="2.5" ry="2.5" style="stroke:#181818;stroke-width:0.5;" width="345" x="661.5" y="615.5"/><ellipse cx="723.75" cy="631.5" fill="#ADD1B2" rx="11" ry="11" style="stroke:#181818;stroke-width:1.0;"/><path d="M726.7188,637.1406 Q726.1406,637.4375 725.5,637.5781 Q724.8594,637.7344 724.1563,637.7344 Q721.6563,637.7344 720.3281,636.0938 Q719.0156,634.4375 719.0156,631.3125 Q719.0156,628.1875 720.3281,626.5313 Q721.6563,624.875 724.1563,624.875 Q724.8594,624.875 725.5,625.0313 Q726.1563,625.1875 726.7188,625.4844 L726.7188,628.2031 Q726.0938,627.625 725.5,627.3594 Q724.9063,627.0781 724.2813,627.0781 Q722.9375,627.0781 722.25,628.1563 Q721.5625,629.2188 721.5625,631.3125 Q721.5625,633.4063 722.25,634.4844 Q722.9375,635.5469 724.2813,635.5469 Q724.9063,635.5469 725.5,635.2813 Q726.0938,635 726.7188,634.4219 L726.7188,637.1406 Z " fill="#000000"/><text fill="#000000" font-family="sans-serif" font-size="14" lengthAdjust="spacing" textLength="212" x="744.25" y="636.3467">LocationStrategyEnvironment</text><line style="stroke:#181818;stroke-width:0.5;" x1="662.5" x2="1005.5" y1="647.5" y2="647.5"/><line style="stroke:#181818;stroke-width:0.5;" x1="662.5" x2="1005.5" y1="655.5" y2="655.5"/><text fill="#000000" font-family="sans-serif" font-size="14" lengthAdjust="spacing" textLength="333" x="667.5" y="672.4951">valueByName(name: string): string | undefined</text></g><!--class location_strategy_347a72bb--><g id="elem_location_strategy_347a72bb"><rect codeLine="73" fill="#F1F1F1" height="64.2969" id="location_strategy_347a72bb" rx="2.5" ry="2.5" style="stroke:#181818;stroke-width:0.5;" width="359" x="1041.5" y="615.5"/><ellipse cx="1156.25" cy="631.5" fill="#B4A7E5" rx="11" ry="11" style="stroke:#181818;stroke-width:1.0;"/><path d="M1152.1719,627.2656 L1152.1719,625.1094 L1159.5625,625.1094 L1159.5625,627.2656 L1157.0938,627.2656 L1157.0938,635.3438 L1159.5625,635.3438 L1159.5625,637.5 L1152.1719,637.5 L1152.1719,635.3438 L1154.6406,635.3438 L1154.6406,627.2656 L1152.1719,627.2656 Z " fill="#000000"/><text fill="#000000" font-family="sans-serif" font-size="14" font-style="italic" lengthAdjust="spacing" textLength="121" x="1176.75" y="636.3467">LocationStrategy</text><line style="stroke:#181818;stroke-width:0.5;" x1="1042.5" x2="1399.5" y1="647.5" y2="647.5"/><line style="stroke:#181818;stroke-width:0.5;" x1="1042.5" x2="1399.5" y1="655.5" y2="655.5"/><ellipse cx="1052.5" cy="669.1484" fill="#84BE84" rx="3" ry="3" style="stroke:#038048;stroke-width:1.0;"/><text fill="#000000" font-family="sans-serif" font-size="14" lengthAdjust="spacing" textLength="333" x="1061.5" y="672.4951">valueByName(name: string): string | undefined</text></g><!--class naming_strategy_1f64e9e4--><g id="elem_naming_strategy_1f64e9e4"><rect codeLine="78" fill="#F1F1F1" height="64.2969" id="naming_strategy_1f64e9e4" rx="2.5" ry="2.5" style="stroke:#181818;stroke-width:0.5;" width="243" x="68.5" y="247"/><ellipse cx="128.25" cy="263" fill="#B4A7E5" rx="11" ry="11" style="stroke:#181818;stroke-width:1.0;"/><path d="M124.1719,258.7656 L124.1719,256.6094 L131.5625,256.6094 L131.5625,258.7656 L129.0938,258.7656 L129.0938,266.8438 L131.5625,266.8438 L131.5625,269 L124.1719,269 L124.1719,266.8438 L126.6406,266.8438 L126.6406,258.7656 L124.1719,258.7656 Z " fill="#000000"/><text fill="#000000" font-family="sans-serif" font-size="14" font-style="italic" lengthAdjust="spacing" textLength="115" x="148.75" y="267.8467">NamingStrategy</text><line style="stroke:#181818;stroke-width:0.5;" x1="69.5" x2="310.5" y1="279" y2="279"/><line style="stroke:#181818;stroke-width:0.5;" x1="69.5" x2="310.5" y1="287" y2="287"/><ellipse cx="79.5" cy="300.6484" fill="#84BE84" rx="3" ry="3" style="stroke:#038048;stroke-width:1.0;"/><text fill="#000000" font-family="sans-serif" font-size="14" lengthAdjust="spacing" textLength="217" x="88.5" y="303.9951">names(name: string[]): string[]</text></g><!--class naming_strategy_prefix_name_7ee8fa60--><g id="elem_naming_strategy_prefix_name_7ee8fa60"><rect codeLine="81" fill="#F1F1F1" height="96.8906" id="naming_strategy_prefix_name_7ee8fa60" rx="2.5" ry="2.5" style="stroke:#181818;stroke-width:0.5;" width="236" x="347" y="230.5"/><ellipse cx="365.15" cy="246.5" fill="#ADD1B2" rx="11" ry="11" style="stroke:#181818;stroke-width:1.0;"/><path d="M368.1188,252.1406 Q367.5406,252.4375 366.9,252.5781 Q366.2594,252.7344 365.5563,252.7344 Q363.0563,252.7344 361.7281,251.0938 Q360.4156,249.4375 360.4156,246.3125 Q360.4156,243.1875 361.7281,241.5313 Q363.0563,239.875 365.5563,239.875 Q366.2594,239.875 366.9,240.0313 Q367.5563,240.1875 368.1188,240.4844 L368.1188,243.2031 Q367.4938,242.625 366.9,242.3594 Q366.3063,242.0781 365.6813,242.0781 Q364.3375,242.0781 363.65,243.1563 Q362.9625,244.2188 362.9625,246.3125 Q362.9625,248.4063 363.65,249.4844 Q364.3375,250.5469 365.6813,250.5469 Q366.3063,250.5469 366.9,250.2813 Q367.4938,250 368.1188,249.4219 L368.1188,252.1406 Z " fill="#000000"/><text fill="#000000" font-family="sans-serif" font-size="14" lengthAdjust="spacing" textLength="197" x="379.85" y="251.3467">NamingStrategyPrefixName</text><line style="stroke:#181818;stroke-width:0.5;" x1="348" x2="582" y1="262.5" y2="262.5"/><polygon fill="none" points="358,271.1484,362,275.1484,358,279.1484,354,275.1484" style="stroke:#B38D22;stroke-width:1.0;"/><text fill="#000000" font-family="sans-serif" font-size="14" lengthAdjust="spacing" textLength="97" x="367" y="279.4951">_prefix: string</text><line style="stroke:#181818;stroke-width:0.5;" x1="348" x2="582" y1="286.7969" y2="286.7969"/><text fill="#000000" font-family="sans-serif" font-size="14" lengthAdjust="spacing" textLength="181" x="353" y="303.792">constructor(prefix: string)</text><text fill="#000000" font-family="sans-serif" font-size="14" lengthAdjust="spacing" textLength="224" x="353" y="320.0889">names(names: string[]): string[]</text></g><!--class naming_strategy_simple_name_c1354e3e--><g id="elem_naming_strategy_simple_name_c1354e3e"><rect codeLine="86" fill="#F1F1F1" height="64.2969" id="naming_strategy_simple_name_c1354e3e" rx="2.5" ry="2.5" style="stroke:#181818;stroke-width:0.5;" width="289" x="45.5" y="615.5"/><ellipse cx="83.45" cy="631.5" fill="#ADD1B2" rx="11" ry="11" style="stroke:#181818;stroke-width:1.0;"/><path d="M86.4188,637.1406 Q85.8406,637.4375 85.2,637.5781 Q84.5594,637.7344 83.8563,637.7344 Q81.3563,637.7344 80.0281,636.0938 Q78.7156,634.4375 78.7156,631.3125 Q78.7156,628.1875 80.0281,626.5313 Q81.3563,624.875 83.8563,624.875 Q84.5594,624.875 85.2,625.0313 Q85.8563,625.1875 86.4188,625.4844 L86.4188,628.2031 Q85.7938,627.625 85.2,627.3594 Q84.6063,627.0781 83.9813,627.0781 Q82.6375,627.0781 81.95,628.1563 Q81.2625,629.2188 81.2625,631.3125 Q81.2625,633.4063 81.95,634.4844 Q82.6375,635.5469 83.9813,635.5469 Q84.6063,635.5469 85.2,635.2813 Q85.7938,635 86.4188,634.4219 L86.4188,637.1406 Z " fill="#000000"/><text fill="#000000" font-family="sans-serif" font-size="14" lengthAdjust="spacing" textLength="206" x="102.55" y="636.3467">NamingStrategySimpleName</text><line style="stroke:#181818;stroke-width:0.5;" x1="46.5" x2="333.5" y1="647.5" y2="647.5"/><line style="stroke:#181818;stroke-width:0.5;" x1="46.5" x2="333.5" y1="655.5" y2="655.5"/><text fill="#000000" font-family="sans-serif" font-size="14" lengthAdjust="spacing" textLength="277" x="51.5" y="672.4951">names(names: string | string[]): string[]</text></g><!--class naming_strategy_suffix_name_eca33007--><g id="elem_naming_strategy_suffix_name_eca33007"><rect codeLine="89" fill="#F1F1F1" height="96.8906" id="naming_strategy_suffix_name_eca33007" rx="2.5" ry="2.5" style="stroke:#181818;stroke-width:0.5;" width="236" x="370" y="599"/><ellipse cx="388.15" cy="615" fill="#ADD1B2" rx="11" ry="11" style="stroke:#181818;stroke-width:1.0;"/><path d="M391.1188,620.6406 Q390.5406,620.9375 389.9,621.0781 Q389.2594,621.2344 388.5563,621.2344 Q386.0563,621.2344 384.7281,619.5938 Q383.4156,617.9375 383.4156,614.8125 Q383.4156,611.6875 384.7281,610.0313 Q386.0563,608.375 388.5563,608.375 Q389.2594,608.375 389.9,608.5313 Q390.5563,608.6875 391.1188,608.9844 L391.1188,611.7031 Q390.4938,611.125 389.9,610.8594 Q389.3063,610.5781 388.6813,610.5781 Q387.3375,610.5781 386.65,611.6563 Q385.9625,612.7188 385.9625,614.8125 Q385.9625,616.9063 386.65,617.9844 Q387.3375,619.0469 388.6813,619.0469 Q389.3063,619.0469 389.9,618.7813 Q390.4938,618.5 391.1188,617.9219 L391.1188,620.6406 Z " fill="#000000"/><text fill="#000000" font-family="sans-serif" font-size="14" lengthAdjust="spacing" textLength="197" x="402.85" y="619.8467">NamingStrategySuffixName</text><line style="stroke:#181818;stroke-width:0.5;" x1="371" x2="605" y1="631" y2="631"/><polygon fill="none" points="381,639.6484,385,643.6484,381,647.6484,377,643.6484" style="stroke:#B38D22;stroke-width:1.0;"/><text fill="#000000" font-family="sans-serif" font-size="14" lengthAdjust="spacing" textLength="94" x="390" y="647.9951">_suffix: string</text><line style="stroke:#181818;stroke-width:0.5;" x1="371" x2="605" y1="655.2969" y2="655.2969"/><text fill="#000000" font-family="sans-serif" font-size="14" lengthAdjust="spacing" textLength="178" x="376" y="672.292">constructor(suffix: string)</text><text fill="#000000" font-family="sans-serif" font-size="14" lengthAdjust="spacing" textLength="224" x="376" y="688.5889">names(names: string[]): string[]</text></g><!--reverse link convert_strategy_base64_to_string_1a7fae76 to env_factory_3969ec87--><g id="link_convert_strategy_base64_to_string_1a7fae76_env_factory_3969ec87"><path codeLine="96" d="M2672.34,315.39 C2645.42,358.59 2594.47,431.17 2533,474 C2430.33,545.54 2295.12,590.03 2192.11,615.88 " fill="none" id="convert_strategy_base64_to_string_1a7fae76-backto-env_factory_3969ec87" style="stroke:#181818;stroke-width:1.0;"/><polygon fill="#181818" points="2675.03,311.04,2666.8982,316.5964,2672.4031,315.2944,2673.7052,320.7993,2675.03,311.04" style="stroke:#181818;stroke-width:1.0;"/></g><!--reverse link convert_strategy_to_boolean_b5f6361d to env_factory_3969ec87--><g id="link_convert_strategy_to_boolean_b5f6361d_env_factory_3969ec87"><path codeLine="97" d="M3000.43,315.56 C2972.81,359.96 2919.41,434.82 2853,474 C2645.99,596.11 2364.24,632.36 2192.34,642.78 " fill="none" id="convert_strategy_to_boolean_b5f6361d-backto-env_factory_3969ec87" style="stroke:#181818;stroke-width:1.0;"/><polygon fill="#181818" points="3003.19,311.1,2995.0582,316.6564,3000.5631,315.3544,3001.8652,320.8593,3003.19,311.1" style="stroke:#181818;stroke-width:1.0;"/></g><!--reverse link convert_strategy_to_json_3a59481 to env_factory_3969ec87--><g id="link_convert_strategy_to_json_3a59481_env_factory_3969ec87"><path codeLine="98" d="M3318.23,315.76 C3296.38,360.72 3252.41,436.54 3190,474 C3024.6,573.26 2465.63,620.42 2192.2,637.97 " fill="none" id="convert_strategy_to_json_3a59481-backto-env_factory_3969ec87" style="stroke:#181818;stroke-width:1.0;"/><polygon fill="#181818" points="3320.4,311.24,3312.9026,317.6267,3318.2387,315.7487,3320.1166,321.0848,3320.4,311.24" style="stroke:#181818;stroke-width:1.0;"/></g><!--reverse link convert_strategy_to_number_5542359a to env_factory_3969ec87--><g id="link_convert_strategy_to_number_5542359a_env_factory_3969ec87"><path codeLine="99" d="M3626.42,315.75 C3599.49,361.06 3546.48,437.63 3478,474 C3257.72,590.98 2515.62,630.23 2192.02,641.99 " fill="none" id="convert_strategy_to_number_5542359a-backto-env_factory_3969ec87" style="stroke:#181818;stroke-width:1.0;"/><polygon fill="#181818" points="3629.1,311.2,3621.0982,316.9421,3626.5718,315.5137,3628.0001,320.9873,3629.1,311.2" style="stroke:#181818;stroke-width:1.0;"/></g><!--reverse link convert_strategy_to_string_8b9651ec to env_factory_3969ec87--><g id="link_convert_strategy_to_string_8b9651ec_env_factory_3969ec87"><path codeLine="100" d="M3955.3,315.58 C3930.56,361.06 3881.03,438.2 3814,474 C3534.84,623.1 2569.56,644.07 2192.04,646.47 " fill="none" id="convert_strategy_to_string_8b9651ec-backto-env_factory_3969ec87" style="stroke:#181818;stroke-width:1.0;"/><polygon fill="#181818" points="3957.76,311.01,3949.9689,317.0348,3955.3878,315.4114,3957.0112,320.8304,3957.76,311.01" style="stroke:#181818;stroke-width:1.0;"/></g><!--reverse link env_type_b658b1cb to env_factory_3969ec87--><g id="link_env_type_b658b1cb_env_factory_3969ec87"><path codeLine="101" d="M2014.85,479.51 C2017.54,498.13 2020.2,516.52 2022.72,533.91 " fill="none" id="env_type_b658b1cb-backto-env_factory_3969ec87" style="stroke:#181818;stroke-width:1.0;"/><polygon fill="#181818" points="2014.09,474.25,2011.4145,483.7285,2014.8031,479.1989,2019.3327,482.5875,2014.09,474.25" style="stroke:#181818;stroke-width:1.0;"/></g><!--reverse link env_type_b658b1cb to env_type_b658b1cb--><g id="link_env_type_b658b1cb_env_type_b658b1cb"><path codeLine="102" d="M2179.11,223.47 C2197.42,234.81 2209,253.32 2209,279 C2209,306.85 2195.37,326.27 2174.31,337.26 " fill="none" id="env_type_b658b1cb-backto-env_type_b658b1cb" style="stroke:#181818;stroke-width:1.0;"/><polygon fill="#181818" points="2174.31,220.74,2180.1537,228.6679,2178.6556,223.213,2184.1105,221.7149,2174.31,220.74" style="stroke:#181818;stroke-width:1.0;"/></g><!--reverse link env_factory_3969ec87 to msh_env_b1c29247--><g id="link_env_factory_3969ec87_msh_env_b1c29247"><path codeLine="103" d="M2039,766.37 C2039,787.77 2039,807.49 2039,820.79 " fill="none" id="env_factory_3969ec87-backto-msh_env_b1c29247" style="stroke:#181818;stroke-width:1.0;"/><polygon fill="#181818" points="2039,761.2,2035,770.2,2039,766.2,2043,770.2,2039,761.2" style="stroke:#181818;stroke-width:1.0;"/></g><!--SRC=[pLXRRzis57xVho2o5mTR0icwMLwHe6cwXw5D1qJOIneGb7JagfL8JvAz6bt- -qXHiaHQyYNfWEOXaWw_GtxypZcy62644fR5KA2pieZE42aHV-9mvjcnuQ5lFw7wZuMV8QhGsVloqrkwhc5v-Ga3NUFGZAR-rEwmJyspxJTYT0r5TL5M1QbWiQcz6oDkZTYUkhvbp_njDmX56IbBTFP6GkyRv0qfmRK3nhzJkXZkBAmnk6B2n57O95v2m7DxlQFMRS8nrtCaaUVj2_eNhMWCIKeXtleyRTzIMa6Ha0Xs-0qpSdnd6iUUgH3uPOn2S63qOMK2TiDO1eGEK-1gXB8TXqxYMguP7oD7u_DCHd-KR9pEPzw8BUBuzimyXifpPRbRvI4KepHetOmTnvvQZa-EOI9TdabdN-PsAJiBVTSn8VfEAQjN9JHbB4hOidmmxD3PhJrUxB-Jg6B5PWjEv3UsVDU7QEOf_7v6OasO8-xNiyfohAt1PWcl9DshFa8cMGTf35VgtBdZIem-MPA2vEKSVVj8wpPASYXR7HuUVslC6Oj8bJBQQ9yAp3lLjkdGl1FktSVUzIqSYJxIf_CU9P707UUWprPcIDSel_i8INPSbQU1O6oZO4PkOdXHFA3-dQg5sdwS8ghFOLr-x2XnJVuYsGhsriaEkxrn407RngBY7pXqdHdV2aCz82JBs3yGrmHuxu4khj9-o-vOnTUBYgHqiXOcNkL1jmZlSMsNbNO2AZHIrw0vqXObDNU5Gm6yuMrHy33cvQAtrjGs5Sor9AkiQaGEHlGTNXkwd1rcdh750efR25UBFf5VcsoulBmanQANOmzVMiZZ716w4SdmyCXvhrcgiU42fp6VvUk-ZehicayZ-6GxQ53tF5Z_- -hWY6YqsTugfkTq8_b4atwC3LkAOYBPU7GA-7kL5X1pnC6zeorOzKZNMhlDZ2JnTEOOrkw-efVtconzpHLzdz8qJyjgfByeIx4G7kSD3iS-YMT0x9sga-5HZSBhmxBY3Qt_fVZS6xJhBcfIGs7v8D_Q68d1hhk5GmzLdL0t6v7Y4zhBysEFcYEItRBe2nJtm2krAaS4YsiCBYK84n8dffluYbh_4psUXcd1Q0vqB9hG8R1fykj6OXdVbLdlZAwp6w5asHxnfc6edT9VHaIl7hc1gRKZRHqHp_SImuZxXx_URDGDRx03Ct5jyC7MPbBlSSeSwXNiy9wd3lbdmUVwLUWnEFYoRXRd1i0Um2mXhg5NgCGChFbA3IgWStspdcXRzZDcSf_comn6PrBMpN8caMavDbYWp6I01q-6bn1Q9VkaBUjcIGWYObc6iNC2bvW3qggW5qahd-B_uFtWOhMyk3hXZdvYFmFNsjDxwDz4J_VMBf2dTw1T-VPti7FaRE3gCNGSk_F3JGVLH_mF]--></g></svg>